<?xml version="1.0" encoding="UTF-8"?>
<svg xmlns="http://www.w3.org/2000/svg" xmlns:xlink="http://www.w3.org/1999/xlink" width="50px" height="18px" viewBox="0 0 51 18" version="1.1">
<g id="surface1">
<path style=" stroke:none;fill-rule:nonzero;fill:rgb(78.039216%,0%,4.705882%);fill-opacity:1;" d="M 30.519531 2.050781 C 29.886719 2.683594 27.90625 4.644531 27.339844 5.03125 C 26.847656 5.363281 25.917969 5.726562 25.136719 5.199219 C 25.710938 5.921875 26.597656 6.386719 27.589844 6.386719 C 29.332031 6.386719 30.742188 4.964844 30.742188 3.214844 C 30.742188 2.804688 30.664062 2.410156 30.519531 2.050781 "/>
<path style=" stroke:none;fill-rule:nonzero;fill:rgb(11.372549%,12.54902%,53.333333%);fill-opacity:1;" d="M 24.886719 1.113281 L 23.175781 0.078125 C 23 -0.0273438 22.714844 -0.0273438 22.539062 0.078125 L 20.421875 1.359375 C 20.25 1.464844 20.105469 1.722656 20.105469 1.933594 L 20.105469 4.097656 C 20.925781 3.285156 22.476562 1.769531 22.964844 1.433594 C 23.398438 1.140625 24.171875 0.824219 24.886719 1.113281 "/>
<path style=" stroke:none;fill-rule:nonzero;fill:rgb(100%,100%,100%);fill-opacity:1;" d="M 24.886719 1.113281 C 24.171875 0.824219 23.398438 1.140625 22.964844 1.433594 C 22.476562 1.769531 20.925781 3.285156 20.105469 4.097656 L 20.105469 4.488281 C 20.105469 4.699219 20.25 4.957031 20.421875 5.066406 L 21.105469 5.476562 C 21.851562 4.734375 23.410156 3.179688 24.121094 2.449219 C 24.527344 2.035156 24.917969 1.949219 25.238281 1.988281 C 25.675781 2.039062 25.976562 2.320312 25.976562 2.320312 C 25.683594 1.644531 25.296875 1.28125 24.886719 1.113281 "/>
<path style=" stroke:none;fill-rule:nonzero;fill:rgb(11.372549%,12.54902%,53.333333%);fill-opacity:1;" d="M 24.328125 4.144531 C 24.328125 4.144531 24.449219 4.257812 24.652344 4.355469 C 24.804688 4.429688 25.007812 4.492188 25.238281 4.484375 L 25.238281 1.988281 C 24.917969 1.949219 24.523438 2.035156 24.121094 2.449219 C 23.410156 3.179688 21.851562 4.734375 21.105469 5.476562 L 22.539062 6.34375 C 22.714844 6.449219 23 6.449219 23.175781 6.34375 L 25.105469 5.179688 C 24.8125 4.972656 24.542969 4.644531 24.328125 4.144531 "/>
<path style=" stroke:none;fill-rule:nonzero;fill:rgb(100%,100%,100%);fill-opacity:1;" d="M 29.5 0.695312 C 28.996094 1.191406 27.011719 3.160156 26.183594 4.011719 C 25.847656 4.355469 25.523438 4.476562 25.238281 4.484375 C 25.007812 4.492188 24.804688 4.429688 24.652344 4.355469 C 24.449219 4.257812 24.328125 4.144531 24.328125 4.144531 C 24.546875 4.644531 24.8125 4.972656 25.105469 5.179688 C 25.113281 5.183594 25.125 5.191406 25.136719 5.199219 C 25.917969 5.726562 26.847656 5.363281 27.339844 5.03125 C 27.90625 4.644531 29.886719 2.683594 30.519531 2.050781 C 30.308594 1.507812 29.953125 1.039062 29.5 0.695312 "/>
<path style=" stroke:none;fill-rule:nonzero;fill:rgb(78.039216%,0%,4.705882%);fill-opacity:1;" d="M 27.589844 0.0429688 C 26.59375 0.0429688 25.707031 0.511719 25.128906 1.238281 C 25.445312 1.4375 25.742188 1.777344 25.976562 2.320312 C 25.976562 2.320312 25.675781 2.039062 25.238281 1.988281 L 25.238281 4.484375 C 25.523438 4.476562 25.847656 4.355469 26.183594 4.015625 C 27.011719 3.160156 28.996094 1.191406 29.5 0.695312 C 28.96875 0.285156 28.308594 0.0429688 27.589844 0.0429688 "/>
<path style=" stroke:none;fill-rule:evenodd;fill:rgb(29.803922%,28.627451%,28.627451%);fill-opacity:1;" d="M 39.730469 8.351562 C 39.820312 8.382812 39.953125 8.375 40.007812 8.441406 C 40.039062 8.523438 40.066406 8.679688 39.976562 8.722656 C 40.050781 8.792969 40.144531 8.84375 40.222656 8.910156 C 40.316406 9.253906 40.089844 9.425781 39.976562 9.652344 C 40.058594 9.792969 40.023438 9.9375 39.976562 10.085938 C 39.808594 10.136719 39.53125 10.203125 39.421875 10.058594 C 39.460938 9.640625 39.824219 9.550781 39.792969 9.0625 C 39.710938 9 39.496094 9.070312 39.453125 8.96875 C 39.53125 8.75 39.714844 8.636719 39.730469 8.351562 "/>
<path style=" stroke:none;fill-rule:evenodd;fill:rgb(29.803922%,28.627451%,28.627451%);fill-opacity:1;" d="M 40.996094 10.058594 C 41.40625 10.179688 41.972656 10.148438 42.042969 10.617188 C 41.980469 11.113281 40.878906 10.957031 40.6875 10.679688 C 39.820312 10.640625 39.066406 11.175781 38.28125 10.832031 C 38.488281 10.527344 38.136719 9.914062 38.0625 9.621094 C 38.351562 9.765625 38.546875 9.535156 38.710938 9.621094 C 38.796875 9.78125 38.542969 9.835938 38.589844 10.058594 C 38.695312 10.113281 38.902344 10.074219 38.957031 10.179688 C 38.964844 10.292969 38.9375 10.367188 38.867188 10.398438 C 39.273438 10.730469 39.878906 10.234375 40.46875 10.273438 C 40.707031 10.132812 40.59375 9.726562 40.316406 9.683594 C 40.5 9.613281 40.691406 9.542969 40.746094 9.34375 C 40.722656 9.253906 40.699219 9.164062 40.625 9.125 C 40.679688 9.066406 40.707031 8.980469 40.777344 8.9375 C 40.761719 8.789062 40.554688 8.832031 40.59375 8.628906 C 40.628906 8.625 40.621094 8.574219 40.625 8.535156 C 40.96875 8.519531 41.222656 8.265625 41.488281 8.503906 C 41.628906 9.101562 41.222656 9.628906 40.996094 10.058594 "/>
<path style=" stroke:none;fill-rule:evenodd;fill:rgb(29.803922%,28.627451%,28.627451%);fill-opacity:1;" d="M 38.433594 8.628906 C 38.722656 8.609375 38.8125 8.785156 38.957031 8.910156 C 38.933594 9 38.886719 9.0625 38.835938 9.125 C 38.53125 9.089844 38.382812 9.339844 38.1875 9.3125 C 38.1875 9.003906 38.386719 8.890625 38.433594 8.628906 "/>
<path style=" stroke:none;fill-rule:evenodd;fill:rgb(29.803922%,28.627451%,28.627451%);fill-opacity:1;" d="M 27.640625 13.039062 C 27.691406 13.105469 27.824219 13.097656 27.914062 13.128906 C 28.0625 13 28.035156 12.523438 27.886719 12.414062 C 27.84375 12.664062 27.59375 12.699219 27.640625 13.039062 M 30.753906 9.03125 C 30.824219 9.1875 30.761719 9.390625 30.691406 9.5 C 30.773438 9.871094 31.285156 9.8125 31.523438 10.027344 C 31.441406 10.347656 31.046875 10.625 30.691406 10.398438 C 30.433594 10.480469 30.304688 10.691406 30.230469 10.957031 C 30.507812 11.117188 31.234375 10.9375 31.496094 11.207031 C 31.640625 11.644531 31.714844 11.800781 31.496094 12.167969 C 31.429688 12.277344 31.277344 12.417969 31.277344 12.445312 C 31.277344 12.667969 32.144531 13.09375 32.265625 13.410156 C 32.355469 13.644531 32.371094 14.085938 32.171875 14.246094 C 31.523438 13.992188 31.347656 13.257812 30.691406 13.003906 C 30.121094 13.238281 28.871094 13.792969 28.566406 12.972656 C 29.066406 12.976562 29.6875 12.984375 29.953125 12.664062 C 29.769531 12.382812 29.023438 12.667969 28.75 12.476562 C 28.96875 12.375 29.375 12.230469 29.738281 12.261719 C 30.054688 12.289062 30.332031 12.488281 30.632812 12.414062 C 30.945312 12.339844 31.402344 11.371094 30.785156 11.328125 C 30.332031 11.296875 29.820312 12.21875 29.519531 11.578125 C 29.59375 11.222656 30.117188 11.171875 29.953125 10.679688 C 29.394531 11.042969 28.890625 11.472656 28.378906 11.886719 C 28.367188 12.578125 28.492188 13.132812 28.316406 13.65625 C 28 13.8125 27.832031 13.644531 27.609375 13.535156 C 27.371094 13.414062 27.09375 13.390625 27.054688 13.222656 C 26.976562 12.914062 27.796875 12.316406 27.949219 12.105469 C 28.035156 11.988281 28.082031 11.824219 28.101562 11.703125 C 27.914062 11.511719 27.730469 11.769531 27.515625 11.796875 C 27.386719 11.808594 26.8125 11.675781 26.804688 11.546875 C 26.800781 11.402344 27.074219 11.421875 27.238281 11.390625 C 27.761719 11.296875 28.570312 10.960938 28.039062 10.273438 C 28.277344 10.085938 28.09375 9.609375 28.070312 9.4375 C 28.3125 9.441406 28.5625 9.453125 28.625 9.652344 C 28.6875 9.84375 28.523438 10.003906 28.566406 10.210938 C 28.625 10.515625 29.035156 10.425781 28.996094 10.800781 C 28.914062 11.089844 28.390625 11.097656 28.441406 11.421875 C 28.527344 11.363281 28.855469 11.285156 28.871094 11.050781 C 29.542969 10.726562 30.300781 10.441406 30.324219 9.527344 C 30.324219 9.378906 30.214844 9.261719 30.261719 9.0625 C 30.382812 8.96875 30.605469 8.945312 30.753906 9.03125 "/>
<path style=" stroke:none;fill-rule:evenodd;fill:rgb(29.803922%,28.627451%,28.627451%);fill-opacity:1;" d="M 25.542969 9.15625 C 25.769531 9.695312 25.445312 10.058594 25.605469 10.617188 C 25.726562 11.054688 26.464844 10.824219 26.558594 11.144531 C 26.675781 11.535156 26.074219 11.664062 25.664062 11.703125 C 25.441406 12.5 25.753906 13.800781 25.109375 14.277344 C 24.890625 14.101562 24.933594 13.679688 24.925781 13.378906 C 24.914062 12.933594 25.070312 12.460938 24.957031 12.042969 C 24.570312 11.945312 24.027344 12.171875 23.722656 11.980469 C 23.527344 11.734375 23.671875 11.578125 23.722656 11.175781 C 23.824219 10.363281 23.363281 10.015625 23.9375 9.652344 C 24.070312 9.570312 24.285156 9.484375 24.433594 9.527344 C 24.613281 9.734375 24.316406 9.878906 24.277344 10.148438 C 24.257812 10.277344 24.320312 10.496094 24.308594 10.707031 C 24.292969 10.964844 24.203125 11.179688 24.246094 11.328125 C 24.335938 11.636719 24.835938 11.648438 25.046875 11.328125 C 24.980469 10.992188 25.058594 10.65625 24.988281 10.304688 C 24.941406 10.082031 24.765625 9.898438 24.832031 9.714844 C 24.84375 9.683594 25.226562 9.324219 25.386719 9.21875 C 25.421875 9.195312 25.449219 9.140625 25.542969 9.15625 "/>
<path style=" stroke:none;fill-rule:evenodd;fill:rgb(29.803922%,28.627451%,28.627451%);fill-opacity:1;" d="M 23.257812 9.28125 C 23.226562 9.734375 22.863281 9.855469 22.550781 10.027344 C 22.507812 10.035156 22.523438 10.105469 22.519531 10.148438 C 21.972656 10.191406 21.660156 10.921875 21.101562 10.644531 C 21.082031 10.378906 21.445312 10.226562 21.65625 10.027344 C 21.929688 9.765625 22.203125 9.527344 22.582031 9.3125 C 22.78125 9.199219 23.074219 9.101562 23.257812 9.28125 "/>
<path style=" stroke:none;fill-rule:evenodd;fill:rgb(29.803922%,28.627451%,28.627451%);fill-opacity:1;" d="M 35.289062 10.707031 C 35.640625 10.878906 36.246094 10.523438 36.398438 10.957031 C 36.359375 11.054688 36.324219 11.152344 36.273438 11.234375 C 35.683594 11.316406 34.777344 11.242188 34.917969 11.949219 C 35.015625 12.035156 35.121094 11.925781 35.226562 11.980469 C 35.515625 12.238281 36.066406 12.230469 36.304688 12.539062 C 36.390625 12.980469 36.816406 13.378906 36.644531 13.875 C 36.140625 13.820312 35.972656 13.328125 35.6875 12.972656 C 35.429688 12.652344 35.207031 12.332031 34.765625 12.230469 C 34.550781 12.851562 33.9375 13.375 33.160156 13.222656 C 33.1875 12.789062 33.726562 12.761719 33.933594 12.476562 C 34.058594 12.296875 34.046875 12.113281 34.179688 11.886719 C 33.867188 11.902344 33.636719 11.765625 33.4375 11.671875 C 33.253906 11.585938 32.964844 11.601562 32.972656 11.328125 C 33.449219 11.164062 34.347656 11.429688 34.546875 10.988281 C 34.636719 10.457031 34.59375 9.980469 34.765625 9.527344 C 35.71875 9.339844 35.230469 10.136719 35.289062 10.707031 "/>
<path style=" stroke:none;fill-rule:evenodd;fill:rgb(29.803922%,28.627451%,28.627451%);fill-opacity:1;" d="M 22.734375 10.179688 C 22.808594 10.304688 22.832031 10.417969 22.796875 10.585938 C 22.828125 10.75 23.148438 10.621094 23.230469 10.738281 C 23.269531 11.09375 22.914062 11.046875 22.703125 11.144531 C 22.71875 11.359375 22.636719 11.515625 22.703125 11.703125 C 22.753906 11.691406 23 11.605469 23.074219 11.515625 C 23.371094 11.765625 23.121094 12.3125 22.703125 12.230469 C 22.679688 12.691406 22.785156 13.203125 22.425781 13.253906 C 22.203125 13.285156 21.65625 12.964844 21.5 12.789062 C 21.578125 12.589844 21.917969 12.777344 22.058594 12.695312 C 22.125 12.550781 22.085938 12.28125 21.996094 12.199219 C 21.777344 12.382812 21.605469 12.613281 21.191406 12.601562 C 21.074219 12.007812 21.902344 11.851562 22.085938 11.359375 C 21.941406 11.023438 21.691406 11.335938 21.535156 11.421875 C 21.347656 11.527344 21.078125 11.570312 20.855469 11.671875 C 20.585938 11.792969 20.320312 12.027344 20.050781 11.917969 C 20.09375 11.835938 20.136719 11.753906 20.175781 11.671875 C 20.792969 11.527344 21.3125 11.117188 21.964844 11.113281 C 22.113281 11.066406 22.089844 10.84375 22.085938 10.644531 C 22.257812 10.445312 22.371094 10.1875 22.734375 10.179688 "/>
<path style=" stroke:none;fill-rule:evenodd;fill:rgb(29.803922%,28.627451%,28.627451%);fill-opacity:1;" d="M 40.46875 11.949219 C 40.648438 11.984375 40.867188 11.984375 41.085938 11.980469 C 41.421875 12.144531 41.378906 12.683594 40.839844 12.601562 C 40.78125 12.972656 40.734375 13.25 40.59375 13.5625 C 40.425781 13.941406 40.242188 14 39.882812 14.121094 C 39.53125 14.242188 39.074219 14.132812 38.621094 13.96875 C 39.019531 13.648438 39.894531 13.832031 40.039062 13.253906 C 40.074219 13.101562 40.050781 12.769531 39.976562 12.601562 C 39.675781 12.660156 39.46875 12.816406 39.234375 12.941406 C 38.738281 12.917969 38.285156 12.84375 38.15625 12.445312 C 38.691406 12.292969 39.355469 12.265625 39.882812 12.105469 C 39.859375 11.941406 39.792969 11.824219 39.761719 11.671875 C 39.632812 11.621094 39.492188 11.589844 39.328125 11.578125 C 39.292969 11.472656 39.230469 11.359375 39.296875 11.234375 C 39.746094 11.347656 40.105469 10.636719 40.4375 11.113281 C 40.457031 11.429688 40.355469 11.707031 40.46875 11.949219 "/>
<path style=" stroke:none;fill-rule:evenodd;fill:rgb(29.803922%,28.627451%,28.627451%);fill-opacity:1;" d="M 37.695312 10.957031 C 37.835938 11.277344 38.15625 11.785156 37.753906 12.042969 C 36.859375 12.039062 37.457031 11.265625 37.695312 10.957031 "/>
<path style=" stroke:none;fill-rule:evenodd;fill:rgb(29.803922%,28.627451%,28.627451%);fill-opacity:1;" d="M 8.609375 11.453125 C 9.007812 11.738281 9.550781 11.871094 9.65625 12.445312 C 9.574219 12.675781 9.609375 13.015625 9.410156 13.128906 C 8.890625 12.917969 9.113281 11.957031 8.609375 11.734375 C 8.613281 11.601562 8.554688 11.558594 8.609375 11.453125 "/>
<path style=" stroke:none;fill-rule:evenodd;fill:rgb(29.803922%,28.627451%,28.627451%);fill-opacity:1;" d="M 11.199219 11.144531 C 11.222656 11.25 11.152344 11.261719 11.167969 11.359375 C 11.289062 11.390625 11.578125 11.238281 11.476562 11.050781 C 11.359375 11.050781 11.285156 11.105469 11.199219 11.144531 M 12.988281 8.9375 C 12.976562 9.363281 12.535156 9.351562 12.21875 9.46875 C 12.191406 9.585938 12.050781 9.589844 11.941406 9.621094 C 11.550781 9.933594 11.203125 10.285156 10.800781 10.585938 C 10.84375 10.675781 10.96875 10.683594 11.046875 10.738281 C 11.214844 10.605469 11.425781 10.691406 11.601562 10.644531 C 12.019531 10.539062 12.117188 10.171875 12.21875 9.746094 L 12.402344 9.746094 C 12.5 9.820312 12.433594 10.023438 12.464844 10.085938 C 13.046875 10.125 14.042969 9.765625 14.46875 10.179688 C 14.515625 10.921875 14.6875 11.859375 14.5 12.726562 C 14.480469 12.824219 14.378906 12.90625 14.347656 13.039062 C 14.269531 13.351562 14.292969 13.558594 14.128906 13.84375 C 14.101562 13.890625 14.050781 13.851562 14.007812 13.90625 C 13.945312 13.976562 13.917969 14.140625 13.882812 14.183594 C 13.460938 14.671875 13 14.234375 12.617188 13.84375 C 12.484375 13.707031 12.335938 13.488281 12.3125 13.347656 C 12.699219 13.390625 13.347656 13.890625 13.605469 13.347656 C 13.765625 13.007812 13.726562 12.347656 13.792969 11.703125 C 13.851562 11.097656 13.859375 10.578125 13.511719 10.335938 C 12.875 10.417969 12.273438 10.535156 11.96875 10.957031 C 12.113281 11.121094 12.546875 10.996094 12.464844 11.390625 C 12.265625 11.472656 12.003906 11.488281 11.941406 11.703125 C 12.085938 11.855469 12.371094 11.871094 12.464844 12.074219 C 12.351562 12.273438 12.058594 12.285156 11.910156 12.445312 C 11.921875 13.070312 11.832031 13.585938 11.695312 14.0625 C 11.660156 14.132812 11.472656 14.046875 11.445312 14.121094 C 11.117188 13.773438 11.515625 13.15625 11.445312 12.632812 C 11.019531 12.632812 10.832031 13.023438 10.429688 12.945312 C 10.316406 12.824219 10.386719 12.589844 10.429688 12.445312 C 10.636719 12.339844 10.902344 12.140625 11.230469 12.261719 C 11.394531 12.195312 11.421875 11.921875 11.261719 11.824219 C 10.902344 11.886719 10.710938 12.121094 10.304688 12.136719 C 10.261719 11.882812 10.578125 11.730469 10.675781 11.515625 C 10.332031 11.449219 9.972656 11.394531 9.78125 11.175781 C 9.925781 10.914062 10.320312 10.910156 10.519531 10.707031 C 10.554688 10.378906 10.738281 10.199219 10.953125 10.058594 C 10.917969 9.875 10.550781 10.027344 10.429688 9.933594 C 10.351562 9.753906 10.375 9.582031 10.492188 9.46875 C 10.996094 9.746094 11.5625 9.429688 11.601562 8.878906 C 11.777344 8.804688 11.902344 8.683594 12.003906 8.535156 C 12.246094 8.449219 12.324219 8.707031 12.496094 8.785156 C 12.707031 8.789062 12.894531 8.816406 12.988281 8.9375 "/>
<path style=" stroke:none;fill-rule:nonzero;fill:rgb(29.803922%,28.627451%,28.627451%);fill-opacity:1;" d="M 17.21875 9.101562 C 17.242188 9.074219 17.277344 9.042969 17.292969 9.011719 C 17.289062 9.011719 17.289062 9.019531 17.296875 9.023438 C 17.308594 8.992188 17.339844 8.988281 17.363281 8.972656 C 17.402344 8.929688 17.460938 8.898438 17.492188 8.851562 C 17.515625 8.816406 17.546875 8.816406 17.574219 8.792969 C 17.578125 8.777344 17.589844 8.765625 17.589844 8.757812 C 17.601562 8.742188 17.621094 8.726562 17.628906 8.710938 L 17.636719 8.71875 C 17.644531 8.699219 17.65625 8.691406 17.679688 8.695312 C 17.691406 8.710938 17.695312 8.742188 17.691406 8.777344 C 17.695312 8.804688 17.683594 8.835938 17.691406 8.875 C 17.6875 8.890625 17.683594 8.910156 17.683594 8.9375 C 17.6875 8.964844 17.6875 9 17.660156 9.023438 C 17.621094 9.035156 17.582031 9.039062 17.550781 9.054688 C 17.519531 9.0625 17.484375 9.070312 17.464844 9.097656 C 17.441406 9.097656 17.421875 9.09375 17.40625 9.113281 C 17.371094 9.113281 17.34375 9.132812 17.3125 9.136719 C 17.308594 9.15625 17.289062 9.140625 17.277344 9.152344 C 17.257812 9.148438 17.246094 9.175781 17.226562 9.171875 C 17.214844 9.183594 17.199219 9.164062 17.199219 9.1875 C 17.183594 9.183594 17.175781 9.179688 17.171875 9.179688 C 17.171875 9.144531 17.203125 9.125 17.21875 9.101562 M 16.929688 9.453125 C 16.992188 9.765625 17.464844 9.585938 17.667969 9.59375 C 17.65625 9.621094 17.660156 9.671875 17.648438 9.699219 C 17.714844 9.644531 17.761719 9.558594 17.839844 9.515625 C 17.910156 9.476562 18.03125 9.457031 18.113281 9.425781 C 18.359375 9.332031 18.636719 9.234375 18.824219 9.039062 C 18.824219 9.015625 18.859375 9.003906 18.859375 8.984375 C 18.882812 8.792969 18.742188 8.625 18.519531 8.636719 C 18.367188 8.648438 18.273438 8.84375 18.109375 8.816406 C 18.109375 8.785156 18.105469 8.742188 18.121094 8.714844 C 18.152344 8.660156 18.148438 8.605469 18.171875 8.554688 C 18.171875 8.515625 18.195312 8.472656 18.234375 8.46875 C 18.285156 8.464844 18.335938 8.414062 18.394531 8.40625 C 18.550781 8.386719 18.8125 8.335938 18.9375 8.238281 C 19.148438 8.078125 18.933594 7.894531 18.738281 7.867188 C 18.683594 7.863281 18.277344 7.976562 18.289062 7.984375 L 18.277344 7.976562 C 18.269531 7.917969 18.292969 7.875 18.289062 7.820312 C 18.316406 7.765625 18.289062 7.695312 18.261719 7.65625 C 18.230469 7.609375 18.175781 7.597656 18.148438 7.5625 C 18.105469 7.539062 18.058594 7.53125 18.027344 7.507812 C 17.996094 7.519531 17.941406 7.492188 17.929688 7.542969 C 17.898438 7.542969 17.890625 7.578125 17.871094 7.597656 C 17.832031 7.597656 17.835938 7.636719 17.820312 7.65625 C 17.761719 7.6875 17.734375 7.742188 17.683594 7.785156 C 17.644531 7.804688 17.632812 7.839844 17.605469 7.875 C 17.597656 7.882812 17.601562 7.902344 17.589844 7.914062 C 17.582031 7.917969 17.574219 7.929688 17.589844 7.945312 C 17.578125 7.980469 17.613281 8.007812 17.628906 8.046875 C 17.65625 8.09375 17.695312 8.136719 17.734375 8.191406 C 17.714844 8.25 17.640625 8.222656 17.597656 8.25 C 17.554688 8.261719 17.511719 8.265625 17.472656 8.28125 C 17.449219 8.285156 17.433594 8.289062 17.421875 8.304688 C 17.378906 8.300781 17.328125 8.296875 17.296875 8.296875 C 17.257812 8.3125 17.265625 8.347656 17.265625 8.382812 C 17.257812 8.40625 17.28125 8.429688 17.289062 8.460938 C 17.269531 8.496094 17.292969 8.535156 17.3125 8.570312 C 17.316406 8.570312 17.320312 8.5625 17.328125 8.5625 C 17.324219 8.582031 17.351562 8.570312 17.367188 8.585938 C 17.441406 8.640625 17.578125 8.546875 17.570312 8.671875 C 17.570312 8.734375 17.394531 8.859375 17.355469 8.898438 C 17.261719 8.984375 16.953125 9.171875 16.933594 9.304688 C 16.921875 9.363281 16.921875 9.410156 16.929688 9.453125 "/>
<path style=" stroke:none;fill-rule:nonzero;fill:rgb(29.803922%,28.627451%,28.627451%);fill-opacity:1;" d="M 20.195312 10.519531 C 20.039062 10.378906 19.796875 10.292969 19.652344 10.339844 C 19.53125 10.378906 19.429688 10.460938 19.3125 10.507812 C 19.183594 10.554688 19.046875 10.574219 18.921875 10.617188 C 18.675781 10.699219 18.433594 10.789062 18.1875 10.871094 C 18.003906 10.933594 17.703125 11.21875 17.515625 11.066406 C 17.335938 10.921875 17.351562 10.441406 17.273438 10.226562 C 17.492188 10.277344 17.652344 10.253906 17.851562 10.140625 C 18.019531 10.046875 18.21875 9.871094 18.40625 9.859375 C 18.285156 10.035156 18.199219 10.238281 18.011719 10.359375 C 17.914062 10.429688 17.46875 10.59375 17.722656 10.75 C 17.839844 10.820312 18.246094 10.707031 18.390625 10.683594 C 18.621094 10.644531 18.863281 10.414062 18.515625 10.320312 C 18.652344 10.128906 18.964844 9.828125 18.855469 9.566406 C 18.730469 9.28125 18.433594 9.425781 18.253906 9.546875 C 18.054688 9.683594 17.835938 9.777344 17.625 9.890625 C 17.371094 10.027344 17.171875 10.136719 17.070312 9.785156 C 16.890625 10.027344 16.992188 10.335938 17.070312 10.597656 C 17.117188 10.746094 17.417969 11.09375 17.355469 11.226562 C 17.3125 11.324219 17.125 11.335938 17.039062 11.359375 C 16.910156 11.402344 16.800781 11.460938 16.683594 11.527344 C 16.558594 11.597656 16.433594 11.644531 16.296875 11.695312 C 16.1875 11.734375 16.054688 11.867188 15.9375 11.871094 C 15.753906 11.882812 15.855469 11.800781 15.746094 11.691406 C 15.722656 11.664062 15.730469 11.625 15.710938 11.613281 C 15.703125 11.582031 15.691406 11.554688 15.667969 11.550781 C 15.667969 11.539062 15.671875 11.542969 15.679688 11.546875 C 15.679688 11.53125 15.664062 11.527344 15.671875 11.519531 C 15.660156 11.46875 15.628906 11.433594 15.609375 11.398438 C 15.597656 11.367188 15.578125 11.34375 15.578125 11.328125 L 15.527344 11.261719 C 15.5 11.25 15.476562 11.234375 15.464844 11.25 C 15.429688 11.25 15.398438 11.269531 15.386719 11.304688 C 15.390625 11.328125 15.347656 11.335938 15.355469 11.371094 C 15.347656 11.40625 15.316406 11.433594 15.332031 11.484375 C 15.328125 11.484375 15.320312 11.492188 15.328125 11.507812 C 15.300781 11.53125 15.339844 11.558594 15.3125 11.59375 C 15.316406 11.679688 15.304688 11.773438 15.289062 11.867188 C 15.28125 11.871094 15.289062 11.882812 15.28125 11.894531 C 15.269531 11.921875 15.28125 11.960938 15.265625 12 C 15.199219 12.042969 15.25 12.132812 15.257812 12.203125 C 15.253906 12.246094 15.238281 12.300781 15.25 12.359375 C 15.261719 12.402344 15.261719 12.464844 15.316406 12.5 C 15.347656 12.566406 15.382812 12.625 15.433594 12.691406 C 15.433594 12.710938 15.460938 12.695312 15.476562 12.71875 C 15.566406 12.71875 15.667969 12.722656 15.738281 12.660156 C 15.765625 12.625 15.757812 12.585938 15.773438 12.554688 C 15.78125 12.515625 15.78125 12.476562 15.785156 12.449219 C 15.808594 12.402344 15.8125 12.34375 15.847656 12.308594 C 15.859375 12.285156 15.871094 12.253906 15.894531 12.242188 C 15.910156 12.195312 15.953125 12.167969 15.988281 12.152344 C 16.027344 12.117188 16.078125 12.105469 16.121094 12.085938 C 16.140625 12.050781 16.175781 12.089844 16.195312 12.0625 C 16.273438 12.046875 16.359375 12.027344 16.441406 12.003906 C 16.449219 12 16.453125 11.980469 16.46875 11.992188 C 16.515625 11.96875 16.542969 11.941406 16.589844 11.921875 C 16.632812 11.878906 16.6875 11.859375 16.738281 11.828125 C 16.800781 11.792969 16.867188 11.75 16.933594 11.722656 C 16.960938 11.691406 16.992188 11.675781 17.03125 11.667969 C 17.066406 11.65625 17.105469 11.644531 17.136719 11.617188 L 17.1875 11.609375 C 17.207031 11.589844 17.21875 11.5625 17.25 11.582031 C 17.285156 11.5625 17.332031 11.554688 17.359375 11.527344 C 17.363281 11.515625 17.367188 11.511719 17.378906 11.519531 C 17.386719 11.511719 17.398438 11.515625 17.40625 11.507812 C 17.417969 11.511719 17.433594 11.492188 17.457031 11.496094 L 17.574219 11.449219 L 17.578125 11.429688 L 17.585938 11.4375 C 17.59375 11.433594 17.605469 11.433594 17.617188 11.429688 C 17.636719 11.402344 17.65625 11.429688 17.683594 11.441406 C 17.707031 11.40625 17.742188 11.449219 17.765625 11.421875 C 17.800781 11.382812 17.757812 11.351562 17.777344 11.316406 C 17.804688 11.28125 17.839844 11.25 17.886719 11.25 C 17.910156 11.226562 17.941406 11.21875 17.976562 11.207031 C 17.996094 11.179688 18.035156 11.164062 18.074219 11.171875 C 18.105469 11.144531 18.152344 11.152344 18.191406 11.128906 C 18.214844 11.117188 18.234375 11.105469 18.265625 11.097656 C 18.335938 11.054688 18.421875 11.050781 18.503906 11.019531 C 18.511719 11.003906 18.53125 11.023438 18.542969 11.011719 C 18.574219 11 18.609375 10.992188 18.644531 10.988281 C 18.6875 10.972656 18.742188 10.960938 18.789062 10.941406 C 18.8125 10.9375 18.847656 10.929688 18.878906 10.925781 C 18.914062 10.917969 18.945312 10.890625 18.988281 10.902344 C 19.035156 10.882812 19.085938 10.863281 19.140625 10.871094 C 19.164062 10.851562 19.199219 10.863281 19.230469 10.871094 C 19.230469 10.871094 19.226562 10.875 19.230469 10.882812 C 19.21875 10.878906 19.210938 10.894531 19.207031 10.890625 C 19.203125 10.898438 19.1875 10.90625 19.183594 10.914062 C 19.164062 10.921875 19.140625 10.917969 19.136719 10.941406 C 19.101562 10.9375 19.082031 10.964844 19.0625 10.984375 C 19.003906 10.976562 18.992188 11.054688 18.9375 11.046875 C 18.871094 11.074219 18.804688 11.09375 18.75 11.128906 C 18.722656 11.136719 18.695312 11.144531 18.675781 11.167969 C 18.609375 11.183594 18.5625 11.214844 18.5 11.234375 C 18.46875 11.234375 18.4375 11.253906 18.421875 11.273438 C 18.40625 11.261719 18.402344 11.277344 18.394531 11.28125 C 18.378906 11.3125 18.332031 11.289062 18.316406 11.324219 C 18.296875 11.339844 18.269531 11.335938 18.25 11.351562 C 18.230469 11.3125 18.199219 11.355469 18.175781 11.351562 C 18.09375 11.375 18.019531 11.410156 17.941406 11.441406 C 17.882812 11.460938 17.820312 11.476562 17.769531 11.511719 C 17.742188 11.511719 17.714844 11.519531 17.695312 11.53125 C 17.660156 11.546875 17.621094 11.535156 17.597656 11.5625 C 17.546875 11.554688 17.5 11.566406 17.453125 11.570312 C 17.4375 11.585938 17.410156 11.566406 17.402344 11.597656 C 17.371094 11.578125 17.355469 11.609375 17.339844 11.601562 C 17.308594 11.589844 17.3125 11.625 17.304688 11.636719 C 17.285156 11.679688 17.261719 11.734375 17.25 11.785156 C 17.21875 11.832031 17.179688 11.882812 17.195312 11.949219 C 17.179688 11.976562 17.199219 12.011719 17.226562 12.042969 C 17.253906 12.042969 17.285156 12.058594 17.316406 12.050781 C 17.335938 12.050781 17.351562 12.058594 17.378906 12.066406 C 17.394531 12.050781 17.421875 12.0625 17.445312 12.058594 C 17.484375 12.058594 17.527344 12.035156 17.574219 12.058594 C 17.578125 12.042969 17.589844 12.046875 17.601562 12.054688 C 17.625 12.03125 17.648438 12.054688 17.675781 12.074219 C 17.671875 12.117188 17.613281 12.148438 17.589844 12.195312 C 17.566406 12.21875 17.542969 12.238281 17.523438 12.269531 C 17.488281 12.277344 17.46875 12.308594 17.449219 12.339844 C 17.410156 12.363281 17.378906 12.40625 17.34375 12.453125 C 17.3125 12.472656 17.269531 12.507812 17.273438 12.554688 C 17.25 12.566406 17.28125 12.582031 17.269531 12.609375 C 17.273438 12.667969 17.257812 12.722656 17.246094 12.789062 C 17.257812 12.816406 17.296875 12.839844 17.332031 12.863281 C 17.355469 12.855469 17.378906 12.878906 17.410156 12.875 C 17.496094 12.859375 17.558594 12.792969 17.644531 12.78125 C 17.652344 12.785156 17.640625 12.796875 17.648438 12.8125 C 17.65625 12.863281 17.601562 12.90625 17.582031 12.960938 C 17.566406 12.972656 17.5625 13.003906 17.539062 13.019531 C 17.46875 13.019531 17.410156 13.070312 17.398438 13.144531 C 17.40625 13.210938 17.367188 13.265625 17.375 13.34375 C 17.378906 13.398438 17.429688 13.453125 17.492188 13.484375 C 17.519531 13.484375 17.542969 13.515625 17.578125 13.519531 C 17.601562 13.535156 17.636719 13.53125 17.667969 13.554688 C 17.667969 13.5625 17.664062 13.585938 17.664062 13.613281 C 17.628906 13.648438 17.609375 13.699219 17.582031 13.742188 C 17.527344 13.835938 17.441406 13.929688 17.335938 13.96875 C 17.285156 13.980469 17.234375 13.984375 17.183594 13.996094 C 17.148438 14.011719 17.113281 13.988281 17.078125 14 C 17.054688 13.980469 17.03125 13.960938 17.003906 13.96875 C 16.96875 13.941406 16.921875 13.941406 16.890625 13.96875 C 16.835938 13.957031 16.785156 13.976562 16.746094 14.011719 C 16.703125 14.058594 16.683594 14.125 16.695312 14.191406 C 16.707031 14.226562 16.683594 14.28125 16.738281 14.3125 C 16.761719 14.355469 16.828125 14.367188 16.875 14.402344 C 16.890625 14.390625 16.902344 14.417969 16.921875 14.425781 C 16.96875 14.410156 17.023438 14.441406 17.078125 14.449219 C 17.105469 14.457031 17.152344 14.457031 17.195312 14.464844 C 17.222656 14.476562 17.246094 14.460938 17.28125 14.480469 C 17.3125 14.476562 17.355469 14.472656 17.394531 14.488281 C 17.40625 14.476562 17.425781 14.488281 17.445312 14.488281 C 17.480469 14.488281 17.511719 14.472656 17.546875 14.5 C 17.570312 14.488281 17.597656 14.496094 17.628906 14.496094 C 17.648438 14.503906 17.644531 14.480469 17.664062 14.480469 C 17.671875 14.511719 17.710938 14.488281 17.742188 14.5 C 17.746094 14.488281 17.757812 14.476562 17.765625 14.5 C 17.769531 14.484375 17.777344 14.480469 17.789062 14.484375 C 17.800781 14.46875 17.820312 14.472656 17.84375 14.484375 C 17.84375 14.480469 17.855469 14.476562 17.867188 14.496094 C 17.898438 14.492188 17.929688 14.460938 17.96875 14.460938 C 18.007812 14.425781 18.054688 14.40625 18.105469 14.402344 C 18.132812 14.402344 18.15625 14.375 18.1875 14.378906 C 18.210938 14.339844 18.253906 14.351562 18.292969 14.34375 C 18.296875 14.332031 18.308594 14.34375 18.320312 14.339844 C 18.371094 14.316406 18.421875 14.308594 18.484375 14.320312 C 18.511719 14.300781 18.554688 14.308594 18.59375 14.308594 C 18.617188 14.289062 18.65625 14.3125 18.6875 14.300781 C 18.703125 14.320312 18.71875 14.261719 18.734375 14.300781 C 18.742188 14.296875 18.738281 14.285156 18.75 14.292969 L 18.746094 14.289062 C 18.742188 14.273438 18.746094 14.269531 18.753906 14.273438 C 18.757812 14.269531 18.753906 14.28125 18.757812 14.292969 C 18.769531 14.289062 18.785156 14.296875 18.804688 14.292969 C 18.8125 14.308594 18.839844 14.277344 18.851562 14.304688 C 18.871094 14.300781 18.890625 14.304688 18.914062 14.304688 C 18.929688 14.308594 18.949219 14.285156 18.972656 14.304688 C 18.996094 14.292969 19.023438 14.289062 19.042969 14.28125 C 19.070312 14.269531 19.097656 14.25 19.125 14.230469 C 19.148438 14.207031 19.160156 14.171875 19.179688 14.152344 C 19.183594 14.144531 19.191406 14.144531 19.199219 14.144531 C 19.222656 14.109375 19.222656 14.070312 19.25 14.046875 C 19.25 14.019531 19.238281 14 19.238281 13.992188 C 19.222656 13.953125 19.210938 13.921875 19.203125 13.898438 C 19.1875 13.871094 19.175781 13.851562 19.171875 13.839844 C 19.152344 13.816406 19.128906 13.804688 19.113281 13.804688 C 19.074219 13.78125 19.039062 13.78125 19.007812 13.777344 C 18.992188 13.777344 18.972656 13.78125 18.96875 13.78125 C 18.9375 13.789062 18.902344 13.789062 18.875 13.8125 C 18.851562 13.785156 18.835938 13.820312 18.816406 13.808594 C 18.765625 13.8125 18.722656 13.816406 18.679688 13.832031 C 18.648438 13.820312 18.625 13.84375 18.605469 13.835938 C 18.59375 13.832031 18.585938 13.839844 18.582031 13.855469 C 18.550781 13.855469 18.515625 13.84375 18.496094 13.863281 C 18.46875 13.835938 18.457031 13.863281 18.4375 13.863281 C 18.40625 13.84375 18.378906 13.871094 18.355469 13.871094 C 18.320312 13.863281 18.292969 13.867188 18.269531 13.890625 C 18.246094 13.871094 18.230469 13.894531 18.214844 13.890625 C 18.191406 13.898438 18.160156 13.882812 18.140625 13.894531 C 18.101562 13.871094 18.046875 13.910156 18.03125 13.871094 C 18.039062 13.804688 18.0625 13.746094 18.058594 13.695312 C 18.074219 13.667969 18.074219 13.640625 18.085938 13.625 C 18.097656 13.601562 18.117188 13.59375 18.140625 13.59375 C 18.183594 13.582031 18.222656 13.585938 18.269531 13.585938 C 18.289062 13.558594 18.320312 13.566406 18.347656 13.566406 C 18.398438 13.550781 18.460938 13.550781 18.507812 13.523438 L 18.554688 13.472656 C 18.589844 13.4375 18.621094 13.40625 18.636719 13.367188 C 18.621094 13.324219 18.621094 13.292969 18.613281 13.265625 C 18.597656 13.25 18.59375 13.238281 18.597656 13.230469 C 18.558594 13.203125 18.554688 13.160156 18.519531 13.15625 C 18.496094 13.121094 18.464844 13.109375 18.445312 13.09375 C 18.425781 13.078125 18.410156 13.058594 18.394531 13.0625 C 18.347656 13.019531 18.269531 13.027344 18.269531 12.960938 C 18.28125 12.917969 18.308594 12.882812 18.351562 12.878906 C 18.441406 12.769531 18.5625 12.667969 18.609375 12.550781 C 18.632812 12.457031 18.542969 12.402344 18.5 12.355469 C 18.488281 12.332031 18.460938 12.328125 18.453125 12.316406 C 18.40625 12.300781 18.386719 12.253906 18.347656 12.246094 C 18.324219 12.242188 18.308594 12.238281 18.292969 12.246094 C 18.253906 12.222656 18.21875 12.246094 18.183594 12.238281 C 18.140625 12.242188 18.101562 12.234375 18.066406 12.257812 C 18.046875 12.257812 18.027344 12.246094 18.019531 12.273438 C 18.003906 12.277344 17.992188 12.273438 17.984375 12.273438 C 17.976562 12.253906 17.976562 12.242188 17.992188 12.238281 C 18.015625 12.238281 18.015625 12.199219 18.039062 12.191406 C 18.058594 12.179688 18.070312 12.148438 18.097656 12.144531 C 18.152344 12.109375 18.195312 12.050781 18.246094 12.015625 C 18.277344 12.007812 18.292969 11.96875 18.320312 11.957031 C 18.363281 11.917969 18.414062 11.867188 18.457031 11.832031 C 18.507812 11.808594 18.507812 11.746094 18.527344 11.707031 C 18.503906 11.691406 18.535156 11.675781 18.519531 11.671875 C 18.519531 11.613281 18.457031 11.617188 18.441406 11.589844 C 18.421875 11.558594 18.386719 11.558594 18.371094 11.546875 C 18.339844 11.5 18.398438 11.515625 18.402344 11.488281 C 18.40625 11.472656 18.414062 11.472656 18.429688 11.480469 C 18.441406 11.457031 18.464844 11.476562 18.476562 11.472656 C 18.5625 11.480469 18.632812 11.402344 18.726562 11.410156 C 18.761719 11.382812 18.796875 11.382812 18.839844 11.375 C 18.855469 11.351562 18.882812 11.351562 18.914062 11.351562 C 18.945312 11.316406 18.996094 11.316406 19.046875 11.316406 C 19.050781 11.304688 19.070312 11.3125 19.078125 11.308594 C 19.121094 11.292969 19.164062 11.285156 19.210938 11.273438 C 19.25 11.269531 19.273438 11.222656 19.328125 11.242188 C 19.335938 11.214844 19.355469 11.234375 19.375 11.230469 C 19.394531 11.226562 19.410156 11.210938 19.433594 11.222656 C 19.46875 11.203125 19.515625 11.199219 19.5625 11.195312 C 19.585938 11.183594 19.621094 11.1875 19.648438 11.191406 C 19.722656 11.164062 19.804688 11.144531 19.890625 11.152344 C 19.898438 11.148438 19.914062 11.152344 19.929688 11.148438 C 19.960938 11.140625 19.996094 11.121094 20.039062 11.125 C 20.066406 11.109375 20.101562 11.121094 20.128906 11.105469 C 20.199219 11.097656 20.230469 11.027344 20.269531 10.984375 C 20.417969 10.828125 20.34375 10.648438 20.195312 10.519531 "/>
<path style=" stroke:none;fill-rule:nonzero;fill:rgb(29.803922%,28.627451%,28.627451%);fill-opacity:1;" d="M 0.359375 17.53125 C 0.515625 17.53125 0.640625 17.492188 0.734375 17.410156 C 0.828125 17.332031 0.875 17.234375 0.875 17.117188 C 0.875 17.011719 0.851562 16.925781 0.808594 16.855469 C 0.765625 16.789062 0.691406 16.730469 0.585938 16.679688 L 0.460938 16.621094 C 0.378906 16.582031 0.324219 16.550781 0.296875 16.527344 C 0.269531 16.507812 0.25 16.480469 0.234375 16.449219 C 0.21875 16.414062 0.210938 16.382812 0.210938 16.339844 C 0.210938 16.277344 0.234375 16.226562 0.273438 16.1875 C 0.316406 16.144531 0.371094 16.125 0.445312 16.125 C 0.492188 16.125 0.546875 16.136719 0.605469 16.152344 C 0.664062 16.171875 0.707031 16.191406 0.734375 16.210938 L 0.796875 16.03125 C 0.730469 15.976562 0.609375 15.949219 0.4375 15.949219 C 0.308594 15.949219 0.203125 15.984375 0.121094 16.058594 C 0.0390625 16.136719 0 16.230469 0 16.34375 C 0 16.4375 0.0195312 16.519531 0.0625 16.585938 C 0.105469 16.652344 0.179688 16.710938 0.285156 16.761719 L 0.410156 16.816406 C 0.523438 16.871094 0.59375 16.917969 0.621094 16.960938 C 0.648438 17.007812 0.664062 17.054688 0.664062 17.105469 C 0.664062 17.175781 0.636719 17.230469 0.585938 17.277344 C 0.539062 17.320312 0.46875 17.34375 0.386719 17.34375 C 0.339844 17.34375 0.289062 17.332031 0.230469 17.3125 C 0.171875 17.292969 0.121094 17.269531 0.0820312 17.242188 L 0.00390625 17.433594 C 0.101562 17.5 0.21875 17.53125 0.359375 17.53125 M 1.15625 17.371094 C 1.25 17.472656 1.375 17.527344 1.535156 17.527344 C 1.695312 17.527344 1.820312 17.476562 1.910156 17.371094 C 2.003906 17.265625 2.050781 17.125 2.050781 16.941406 C 2.050781 16.761719 2.003906 16.621094 1.914062 16.519531 C 1.824219 16.414062 1.699219 16.363281 1.535156 16.363281 C 1.382812 16.363281 1.257812 16.417969 1.164062 16.523438 C 1.070312 16.632812 1.023438 16.769531 1.023438 16.941406 C 1.023438 17.121094 1.066406 17.261719 1.15625 17.371094 M 1.316406 16.636719 C 1.371094 16.5625 1.445312 16.527344 1.535156 16.527344 C 1.738281 16.527344 1.835938 16.664062 1.835938 16.941406 C 1.835938 17.074219 1.8125 17.175781 1.757812 17.25 C 1.703125 17.328125 1.628906 17.363281 1.535156 17.363281 C 1.335938 17.363281 1.234375 17.222656 1.234375 16.941406 C 1.234375 16.8125 1.261719 16.710938 1.316406 16.636719 M 2.238281 16.386719 L 2.238281 17.121094 C 2.238281 17.25 2.269531 17.351562 2.339844 17.421875 C 2.402344 17.492188 2.5 17.527344 2.621094 17.527344 C 2.6875 17.527344 2.753906 17.507812 2.824219 17.472656 C 2.890625 17.433594 2.9375 17.394531 2.960938 17.351562 L 2.960938 17.503906 L 3.160156 17.503906 L 3.160156 16.386719 L 2.960938 16.386719 L 2.960938 17.171875 C 2.941406 17.222656 2.90625 17.265625 2.851562 17.304688 C 2.796875 17.339844 2.734375 17.359375 2.667969 17.359375 C 2.515625 17.359375 2.441406 17.273438 2.441406 17.101562 L 2.441406 16.386719 Z M 3.46875 17.179688 C 3.46875 17.28125 3.5 17.363281 3.5625 17.425781 C 3.621094 17.492188 3.699219 17.527344 3.789062 17.527344 C 3.886719 17.527344 3.980469 17.515625 4.0625 17.496094 L 4.035156 17.320312 C 3.980469 17.347656 3.925781 17.359375 3.875 17.359375 C 3.800781 17.359375 3.75 17.339844 3.71875 17.300781 C 3.6875 17.261719 3.671875 17.191406 3.671875 17.097656 L 3.671875 16.542969 L 3.980469 16.542969 L 3.980469 16.386719 L 3.671875 16.386719 L 3.671875 16.078125 L 3.46875 16.152344 L 3.46875 16.386719 L 3.335938 16.386719 L 3.335938 16.542969 L 3.46875 16.542969 Z M 5.128906 17.503906 L 5.128906 16.800781 C 5.128906 16.667969 5.09375 16.558594 5.027344 16.480469 C 4.960938 16.402344 4.867188 16.363281 4.742188 16.363281 C 4.679688 16.363281 4.617188 16.378906 4.558594 16.40625 C 4.5 16.433594 4.457031 16.46875 4.429688 16.507812 L 4.429688 15.925781 L 4.226562 15.925781 L 4.226562 17.503906 L 4.429688 17.503906 L 4.429688 16.671875 C 4.457031 16.636719 4.492188 16.601562 4.542969 16.574219 C 4.589844 16.546875 4.640625 16.53125 4.6875 16.53125 C 4.765625 16.53125 4.824219 16.558594 4.867188 16.605469 C 4.90625 16.652344 4.929688 16.71875 4.929688 16.800781 L 4.929688 17.503906 Z M 6.367188 16.84375 C 6.367188 16.699219 6.324219 16.585938 6.234375 16.5 C 6.140625 16.410156 6.015625 16.363281 5.855469 16.363281 C 5.714844 16.363281 5.59375 16.414062 5.492188 16.515625 C 5.378906 16.625 5.320312 16.773438 5.320312 16.957031 C 5.320312 17.136719 5.375 17.277344 5.488281 17.382812 C 5.585938 17.480469 5.710938 17.527344 5.851562 17.527344 C 5.949219 17.527344 6.039062 17.511719 6.121094 17.484375 C 6.1875 17.460938 6.234375 17.433594 6.261719 17.402344 L 6.179688 17.261719 C 6.101562 17.328125 6.003906 17.359375 5.890625 17.359375 C 5.789062 17.359375 5.707031 17.328125 5.640625 17.265625 C 5.570312 17.195312 5.53125 17.097656 5.53125 16.964844 L 6.351562 16.964844 C 6.363281 16.925781 6.367188 16.886719 6.367188 16.84375 M 6.089844 16.621094 C 6.140625 16.671875 6.167969 16.742188 6.167969 16.820312 L 5.539062 16.820312 C 5.546875 16.738281 5.578125 16.671875 5.636719 16.617188 C 5.699219 16.5625 5.773438 16.53125 5.863281 16.53125 C 5.960938 16.53125 6.035156 16.5625 6.089844 16.621094 M 7.25 16.382812 C 7.183594 16.371094 7.132812 16.363281 7.097656 16.363281 C 6.949219 16.363281 6.839844 16.429688 6.769531 16.566406 L 6.769531 16.386719 L 6.566406 16.386719 L 6.566406 17.503906 L 6.769531 17.503906 L 6.769531 16.863281 C 6.769531 16.773438 6.796875 16.695312 6.847656 16.628906 C 6.902344 16.566406 6.964844 16.53125 7.035156 16.53125 C 7.078125 16.53125 7.125 16.546875 7.167969 16.578125 Z M 8.289062 17.503906 L 8.289062 16.8125 C 8.289062 16.515625 8.164062 16.363281 7.914062 16.363281 C 7.761719 16.363281 7.65625 16.421875 7.589844 16.53125 L 7.523438 16.386719 L 7.386719 16.386719 L 7.386719 17.503906 L 7.589844 17.503906 L 7.589844 16.671875 C 7.613281 16.632812 7.652344 16.601562 7.703125 16.574219 C 7.753906 16.546875 7.800781 16.53125 7.847656 16.53125 C 7.933594 16.53125 7.992188 16.554688 8.03125 16.605469 C 8.066406 16.652344 8.085938 16.734375 8.085938 16.855469 L 8.085938 17.503906 Z M 10.207031 16.160156 L 10.207031 15.972656 L 8.984375 15.972656 L 8.984375 16.160156 L 9.480469 16.160156 L 9.480469 17.503906 L 9.691406 17.503906 L 9.691406 16.160156 Z M 10.894531 17.492188 C 10.9375 17.515625 10.996094 17.527344 11.078125 17.527344 L 11.078125 17.425781 C 11.019531 17.394531 10.992188 17.328125 10.992188 17.230469 L 10.992188 16.828125 C 10.992188 16.667969 10.953125 16.550781 10.878906 16.476562 C 10.804688 16.402344 10.683594 16.363281 10.519531 16.363281 C 10.457031 16.363281 10.394531 16.375 10.328125 16.398438 C 10.257812 16.421875 10.207031 16.445312 10.167969 16.476562 L 10.253906 16.644531 C 10.320312 16.574219 10.417969 16.542969 10.542969 16.542969 C 10.707031 16.542969 10.789062 16.632812 10.789062 16.8125 C 10.734375 16.796875 10.6875 16.789062 10.644531 16.789062 C 10.488281 16.789062 10.359375 16.828125 10.257812 16.90625 C 10.160156 16.984375 10.109375 17.078125 10.109375 17.191406 C 10.109375 17.289062 10.140625 17.367188 10.207031 17.429688 C 10.269531 17.496094 10.347656 17.527344 10.4375 17.527344 C 10.605469 17.527344 10.726562 17.476562 10.808594 17.375 C 10.824219 17.429688 10.855469 17.46875 10.894531 17.492188 M 10.789062 17.226562 C 10.710938 17.320312 10.621094 17.371094 10.519531 17.371094 C 10.378906 17.371094 10.3125 17.3125 10.3125 17.195312 C 10.3125 17.125 10.34375 17.0625 10.40625 17.011719 C 10.46875 16.960938 10.554688 16.933594 10.65625 16.933594 C 10.679688 16.933594 10.726562 16.941406 10.789062 16.957031 Z M 11.355469 15.996094 C 11.328125 16.019531 11.316406 16.050781 11.316406 16.085938 C 11.316406 16.117188 11.328125 16.148438 11.355469 16.171875 C 11.378906 16.195312 11.40625 16.207031 11.441406 16.207031 C 11.476562 16.207031 11.507812 16.195312 11.53125 16.171875 C 11.554688 16.148438 11.566406 16.117188 11.566406 16.085938 C 11.566406 16.050781 11.554688 16.023438 11.53125 16 C 11.507812 15.972656 11.476562 15.960938 11.441406 15.960938 C 11.40625 15.960938 11.378906 15.972656 11.355469 15.996094 M 11.535156 17.503906 L 11.535156 16.386719 L 11.175781 16.386719 L 11.175781 16.554688 L 11.332031 16.554688 L 11.332031 17.503906 Z M 13.28125 16.382812 L 13.082031 16.382812 L 12.820312 17.117188 L 12.511719 16.382812 L 12.457031 16.382812 L 12.15625 17.117188 L 11.914062 16.382812 L 11.695312 16.382812 L 12.101562 17.527344 L 12.15625 17.527344 L 12.488281 16.765625 L 12.820312 17.527344 L 12.875 17.527344 Z M 14.144531 17.492188 C 14.183594 17.515625 14.246094 17.527344 14.328125 17.527344 L 14.328125 17.425781 C 14.269531 17.394531 14.238281 17.328125 14.238281 17.230469 L 14.238281 16.828125 C 14.238281 16.667969 14.203125 16.550781 14.128906 16.476562 C 14.054688 16.402344 13.933594 16.363281 13.769531 16.363281 C 13.707031 16.363281 13.640625 16.375 13.574219 16.398438 C 13.507812 16.421875 13.453125 16.445312 13.414062 16.476562 L 13.5 16.644531 C 13.566406 16.574219 13.667969 16.542969 13.792969 16.542969 C 13.957031 16.542969 14.039062 16.632812 14.039062 16.8125 C 13.984375 16.796875 13.9375 16.789062 13.894531 16.789062 C 13.738281 16.789062 13.609375 16.828125 13.507812 16.90625 C 13.40625 16.984375 13.355469 17.078125 13.355469 17.191406 C 13.355469 17.289062 13.390625 17.367188 13.453125 17.429688 C 13.519531 17.496094 13.597656 17.527344 13.6875 17.527344 C 13.851562 17.527344 13.976562 17.476562 14.054688 17.375 C 14.074219 17.429688 14.101562 17.46875 14.144531 17.492188 M 14.039062 17.226562 C 13.960938 17.320312 13.867188 17.371094 13.765625 17.371094 C 13.628906 17.371094 13.558594 17.3125 13.558594 17.195312 C 13.558594 17.125 13.589844 17.0625 13.65625 17.011719 C 13.71875 16.960938 13.800781 16.933594 13.902344 16.933594 C 13.929688 16.933594 13.972656 16.941406 14.039062 16.957031 Z M 15.425781 17.503906 L 15.425781 16.8125 C 15.425781 16.515625 15.300781 16.363281 15.050781 16.363281 C 14.898438 16.363281 14.792969 16.421875 14.726562 16.53125 L 14.660156 16.386719 L 14.523438 16.386719 L 14.523438 17.503906 L 14.726562 17.503906 L 14.726562 16.671875 C 14.75 16.632812 14.792969 16.601562 14.839844 16.574219 C 14.890625 16.546875 14.9375 16.53125 14.984375 16.53125 C 15.070312 16.53125 15.132812 16.554688 15.167969 16.605469 C 15.207031 16.652344 15.222656 16.734375 15.222656 16.855469 L 15.222656 17.503906 Z M 16.265625 17.039062 C 16.265625 17.195312 16.308594 17.320312 16.40625 17.402344 C 16.496094 17.488281 16.632812 17.53125 16.804688 17.53125 C 16.972656 17.53125 17.109375 17.488281 17.207031 17.402344 C 17.304688 17.3125 17.351562 17.195312 17.351562 17.039062 L 17.351562 15.972656 L 17.140625 15.972656 L 17.140625 17.015625 C 17.140625 17.117188 17.109375 17.195312 17.050781 17.253906 C 16.992188 17.3125 16.910156 17.34375 16.804688 17.34375 C 16.707031 17.34375 16.625 17.3125 16.566406 17.253906 C 16.507812 17.191406 16.476562 17.117188 16.476562 17.023438 L 16.476562 15.972656 L 16.265625 15.972656 Z M 18.53125 17.503906 L 18.53125 16.8125 C 18.53125 16.515625 18.40625 16.363281 18.160156 16.363281 C 18.007812 16.363281 17.902344 16.421875 17.832031 16.53125 L 17.769531 16.386719 L 17.632812 16.386719 L 17.632812 17.503906 L 17.832031 17.503906 L 17.832031 16.671875 C 17.859375 16.632812 17.898438 16.601562 17.949219 16.574219 C 18 16.546875 18.046875 16.53125 18.09375 16.53125 C 18.179688 16.53125 18.242188 16.554688 18.277344 16.605469 C 18.3125 16.652344 18.332031 16.734375 18.332031 16.855469 L 18.332031 17.503906 Z M 18.875 15.996094 C 18.855469 16.019531 18.84375 16.050781 18.84375 16.085938 C 18.84375 16.117188 18.855469 16.148438 18.878906 16.171875 C 18.902344 16.195312 18.933594 16.207031 18.964844 16.207031 C 19 16.207031 19.03125 16.195312 19.054688 16.171875 C 19.082031 16.148438 19.089844 16.117188 19.089844 16.085938 C 19.089844 16.050781 19.082031 16.023438 19.054688 16 C 19.03125 15.972656 19 15.960938 18.964844 15.960938 C 18.929688 15.960938 18.902344 15.972656 18.875 15.996094 M 19.058594 17.503906 L 19.058594 16.386719 L 18.699219 16.386719 L 18.699219 16.554688 L 18.855469 16.554688 L 18.855469 17.503906 Z M 20.257812 16.382812 L 20.046875 16.382812 L 19.738281 17.167969 L 19.4375 16.382812 L 19.21875 16.382812 L 19.703125 17.527344 L 19.757812 17.527344 Z M 21.332031 16.84375 C 21.332031 16.699219 21.285156 16.585938 21.195312 16.5 C 21.105469 16.410156 20.976562 16.363281 20.816406 16.363281 C 20.675781 16.363281 20.554688 16.414062 20.453125 16.515625 C 20.339844 16.625 20.285156 16.773438 20.285156 16.957031 C 20.285156 17.136719 20.339844 17.277344 20.449219 17.382812 C 20.550781 17.480469 20.671875 17.527344 20.8125 17.527344 C 20.914062 17.527344 21.003906 17.511719 21.085938 17.484375 C 21.148438 17.460938 21.195312 17.433594 21.226562 17.402344 L 21.140625 17.261719 C 21.066406 17.328125 20.96875 17.359375 20.851562 17.359375 C 20.753906 17.359375 20.667969 17.328125 20.605469 17.265625 C 20.53125 17.195312 20.496094 17.097656 20.496094 16.964844 L 21.3125 16.964844 C 21.324219 16.925781 21.332031 16.886719 21.332031 16.84375 M 21.054688 16.621094 C 21.105469 16.671875 21.128906 16.742188 21.128906 16.820312 L 20.503906 16.820312 C 20.507812 16.738281 20.542969 16.671875 20.601562 16.617188 C 20.660156 16.5625 20.734375 16.53125 20.824219 16.53125 C 20.921875 16.53125 20.996094 16.5625 21.054688 16.621094 M 22.214844 16.382812 C 22.148438 16.371094 22.09375 16.363281 22.058594 16.363281 C 21.914062 16.363281 21.804688 16.429688 21.730469 16.566406 L 21.730469 16.386719 L 21.527344 16.386719 L 21.527344 17.503906 L 21.730469 17.503906 L 21.730469 16.863281 C 21.730469 16.773438 21.757812 16.695312 21.808594 16.628906 C 21.863281 16.566406 21.925781 16.53125 21.996094 16.53125 C 22.042969 16.53125 22.085938 16.546875 22.132812 16.578125 Z M 22.609375 17.527344 C 22.738281 17.527344 22.835938 17.496094 22.910156 17.441406 C 22.980469 17.386719 23.015625 17.304688 23.015625 17.207031 C 23.015625 17.128906 22.996094 17.066406 22.953125 17.015625 C 22.914062 16.964844 22.851562 16.917969 22.761719 16.878906 L 22.617188 16.8125 C 22.535156 16.777344 22.492188 16.722656 22.492188 16.648438 C 22.492188 16.617188 22.511719 16.585938 22.542969 16.566406 C 22.574219 16.542969 22.617188 16.53125 22.664062 16.53125 C 22.746094 16.53125 22.824219 16.5625 22.90625 16.625 L 22.960938 16.441406 C 22.835938 16.390625 22.734375 16.363281 22.648438 16.363281 C 22.539062 16.363281 22.453125 16.390625 22.382812 16.441406 C 22.316406 16.496094 22.28125 16.566406 22.28125 16.65625 C 22.28125 16.691406 22.289062 16.726562 22.300781 16.757812 C 22.3125 16.789062 22.328125 16.816406 22.351562 16.84375 C 22.375 16.871094 22.402344 16.898438 22.4375 16.917969 C 22.46875 16.941406 22.53125 16.972656 22.625 17.015625 C 22.742188 17.066406 22.804688 17.128906 22.804688 17.203125 C 22.804688 17.308594 22.742188 17.359375 22.617188 17.359375 C 22.546875 17.359375 22.457031 17.324219 22.34375 17.25 L 22.273438 17.4375 C 22.378906 17.496094 22.492188 17.527344 22.609375 17.527344 M 23.3125 15.996094 C 23.289062 16.019531 23.277344 16.050781 23.277344 16.085938 C 23.277344 16.117188 23.289062 16.148438 23.3125 16.171875 C 23.335938 16.195312 23.367188 16.207031 23.398438 16.207031 C 23.433594 16.207031 23.464844 16.195312 23.488281 16.171875 C 23.511719 16.148438 23.527344 16.117188 23.527344 16.085938 C 23.527344 16.050781 23.511719 16.023438 23.488281 16 C 23.464844 15.972656 23.433594 15.960938 23.398438 15.960938 C 23.367188 15.960938 23.335938 15.972656 23.3125 15.996094 M 23.492188 17.503906 L 23.492188 16.386719 L 23.132812 16.386719 L 23.132812 16.554688 L 23.289062 16.554688 L 23.289062 17.503906 Z M 23.824219 17.179688 C 23.824219 17.28125 23.851562 17.363281 23.914062 17.425781 C 23.976562 17.492188 24.054688 17.527344 24.144531 17.527344 C 24.242188 17.527344 24.335938 17.515625 24.417969 17.496094 L 24.386719 17.320312 C 24.332031 17.347656 24.277344 17.359375 24.230469 17.359375 C 24.15625 17.359375 24.105469 17.339844 24.074219 17.300781 C 24.039062 17.261719 24.023438 17.191406 24.023438 17.097656 L 24.023438 16.542969 L 24.335938 16.542969 L 24.335938 16.386719 L 24.023438 16.386719 L 24.023438 16.078125 L 23.824219 16.152344 L 23.824219 16.386719 L 23.691406 16.386719 L 23.691406 16.542969 L 23.824219 16.542969 Z M 25.519531 16.386719 L 25.3125 16.386719 L 25.011719 17.25 L 24.679688 16.386719 L 24.472656 16.386719 L 24.78125 17.164062 C 24.816406 17.253906 24.84375 17.328125 24.867188 17.386719 C 24.886719 17.445312 24.898438 17.507812 24.898438 17.566406 C 24.898438 17.625 24.867188 17.671875 24.808594 17.710938 C 24.75 17.746094 24.675781 17.765625 24.589844 17.765625 L 24.589844 17.945312 C 24.695312 17.945312 24.789062 17.921875 24.875 17.875 C 24.957031 17.828125 25.011719 17.765625 25.039062 17.695312 Z M 26.273438 17.371094 C 26.363281 17.472656 26.488281 17.527344 26.652344 17.527344 C 26.8125 17.527344 26.933594 17.476562 27.027344 17.371094 C 27.117188 17.265625 27.164062 17.125 27.164062 16.941406 C 27.164062 16.761719 27.121094 16.621094 27.03125 16.519531 C 26.941406 16.414062 26.8125 16.363281 26.652344 16.363281 C 26.496094 16.363281 26.375 16.417969 26.277344 16.523438 C 26.183594 16.632812 26.136719 16.769531 26.136719 16.941406 C 26.136719 17.121094 26.183594 17.261719 26.273438 17.371094 M 26.433594 16.636719 C 26.484375 16.5625 26.558594 16.527344 26.652344 16.527344 C 26.851562 16.527344 26.953125 16.664062 26.953125 16.941406 C 26.953125 17.074219 26.925781 17.175781 26.871094 17.25 C 26.820312 17.328125 26.746094 17.363281 26.652344 17.363281 C 26.449219 17.363281 26.351562 17.222656 26.351562 16.941406 C 26.351562 16.8125 26.375 16.710938 26.433594 16.636719 M 28.003906 15.957031 C 27.9375 15.9375 27.875 15.925781 27.816406 15.925781 C 27.699219 15.925781 27.605469 15.96875 27.53125 16.046875 C 27.460938 16.128906 27.425781 16.242188 27.425781 16.386719 L 27.261719 16.386719 L 27.261719 16.554688 L 27.425781 16.554688 L 27.425781 17.503906 L 27.625 17.503906 L 27.625 16.554688 L 27.859375 16.554688 L 27.859375 16.386719 L 27.625 16.386719 C 27.621094 16.367188 27.621094 16.34375 27.621094 16.328125 C 27.621094 16.257812 27.640625 16.199219 27.679688 16.152344 C 27.722656 16.105469 27.773438 16.085938 27.835938 16.085938 C 27.871094 16.085938 27.90625 16.089844 27.949219 16.105469 Z M 28.972656 17.53125 C 29.128906 17.53125 29.253906 17.492188 29.347656 17.410156 C 29.441406 17.332031 29.488281 17.234375 29.488281 17.117188 C 29.488281 17.011719 29.46875 16.925781 29.425781 16.855469 C 29.382812 16.789062 29.308594 16.730469 29.199219 16.679688 L 29.074219 16.621094 C 28.992188 16.582031 28.9375 16.550781 28.910156 16.527344 C 28.886719 16.507812 28.863281 16.480469 28.851562 16.449219 C 28.835938 16.414062 28.824219 16.382812 28.824219 16.339844 C 28.824219 16.277344 28.847656 16.226562 28.890625 16.1875 C 28.929688 16.144531 28.988281 16.125 29.058594 16.125 C 29.109375 16.125 29.164062 16.136719 29.21875 16.152344 C 29.277344 16.171875 29.320312 16.191406 29.347656 16.210938 L 29.410156 16.03125 C 29.34375 15.976562 29.226562 15.949219 29.054688 15.949219 C 28.925781 15.949219 28.820312 15.984375 28.738281 16.058594 C 28.65625 16.136719 28.613281 16.230469 28.613281 16.34375 C 28.613281 16.4375 28.636719 16.519531 28.679688 16.585938 C 28.71875 16.652344 28.792969 16.710938 28.902344 16.761719 L 29.027344 16.816406 C 29.136719 16.871094 29.207031 16.917969 29.234375 16.960938 C 29.261719 17.007812 29.277344 17.054688 29.277344 17.105469 C 29.277344 17.175781 29.253906 17.230469 29.203125 17.277344 C 29.152344 17.320312 29.085938 17.34375 29.003906 17.34375 C 28.957031 17.34375 28.902344 17.332031 28.84375 17.3125 C 28.785156 17.292969 28.738281 17.269531 28.699219 17.242188 L 28.621094 17.433594 C 28.714844 17.5 28.835938 17.53125 28.972656 17.53125 M 30.421875 16.402344 C 30.351562 16.375 30.289062 16.363281 30.230469 16.363281 C 30.046875 16.363281 29.902344 16.417969 29.796875 16.527344 C 29.691406 16.632812 29.636719 16.777344 29.636719 16.957031 C 29.636719 17.132812 29.6875 17.269531 29.789062 17.371094 C 29.890625 17.476562 30.019531 17.527344 30.171875 17.527344 C 30.332031 17.527344 30.464844 17.492188 30.574219 17.421875 L 30.496094 17.253906 C 30.402344 17.324219 30.3125 17.359375 30.222656 17.359375 C 30.105469 17.359375 30.015625 17.324219 29.949219 17.257812 C 29.882812 17.1875 29.851562 17.085938 29.851562 16.957031 C 29.851562 16.824219 29.882812 16.722656 29.945312 16.644531 C 30.011719 16.570312 30.097656 16.53125 30.210938 16.53125 C 30.261719 16.53125 30.3125 16.539062 30.363281 16.558594 C 30.417969 16.578125 30.453125 16.597656 30.472656 16.617188 L 30.574219 16.476562 C 30.542969 16.453125 30.492188 16.425781 30.421875 16.402344 M 30.894531 15.996094 C 30.871094 16.019531 30.859375 16.050781 30.859375 16.085938 C 30.859375 16.117188 30.871094 16.148438 30.894531 16.171875 C 30.921875 16.195312 30.949219 16.207031 30.984375 16.207031 C 31.015625 16.207031 31.046875 16.195312 31.074219 16.171875 C 31.097656 16.148438 31.109375 16.117188 31.109375 16.085938 C 31.109375 16.050781 31.097656 16.023438 31.074219 16 C 31.046875 15.972656 31.015625 15.960938 30.984375 15.960938 C 30.949219 15.960938 30.917969 15.972656 30.894531 15.996094 M 31.074219 17.503906 L 31.074219 16.386719 L 30.714844 16.386719 L 30.714844 16.554688 L 30.871094 16.554688 L 30.871094 17.503906 Z M 32.328125 16.84375 C 32.328125 16.699219 32.285156 16.585938 32.195312 16.5 C 32.101562 16.410156 31.976562 16.363281 31.8125 16.363281 C 31.675781 16.363281 31.554688 16.414062 31.453125 16.515625 C 31.339844 16.625 31.28125 16.773438 31.28125 16.957031 C 31.28125 17.136719 31.335938 17.277344 31.449219 17.382812 C 31.546875 17.480469 31.667969 17.527344 31.8125 17.527344 C 31.910156 17.527344 32 17.511719 32.082031 17.484375 C 32.144531 17.460938 32.195312 17.433594 32.222656 17.402344 L 32.140625 17.261719 C 32.0625 17.328125 31.96875 17.359375 31.851562 17.359375 C 31.75 17.359375 31.667969 17.328125 31.601562 17.265625 C 31.53125 17.195312 31.496094 17.097656 31.496094 16.964844 L 32.3125 16.964844 C 32.324219 16.925781 32.328125 16.886719 32.328125 16.84375 M 32.050781 16.621094 C 32.101562 16.671875 32.128906 16.742188 32.128906 16.820312 L 31.5 16.820312 C 31.507812 16.738281 31.539062 16.671875 31.597656 16.617188 C 31.660156 16.5625 31.734375 16.53125 31.824219 16.53125 C 31.917969 16.53125 31.996094 16.5625 32.050781 16.621094 M 33.417969 17.503906 L 33.417969 16.8125 C 33.417969 16.515625 33.292969 16.363281 33.046875 16.363281 C 32.894531 16.363281 32.785156 16.421875 32.71875 16.53125 L 32.65625 16.386719 L 32.519531 16.386719 L 32.519531 17.503906 L 32.71875 17.503906 L 32.71875 16.671875 C 32.746094 16.632812 32.785156 16.601562 32.835938 16.574219 C 32.886719 16.546875 32.933594 16.53125 32.980469 16.53125 C 33.066406 16.53125 33.125 16.554688 33.164062 16.605469 C 33.199219 16.652344 33.21875 16.734375 33.21875 16.855469 L 33.21875 17.503906 Z M 34.394531 16.402344 C 34.328125 16.375 34.261719 16.363281 34.203125 16.363281 C 34.019531 16.363281 33.875 16.417969 33.769531 16.527344 C 33.664062 16.632812 33.613281 16.777344 33.613281 16.957031 C 33.613281 17.132812 33.664062 17.269531 33.761719 17.371094 C 33.863281 17.476562 33.992188 17.527344 34.148438 17.527344 C 34.308594 17.527344 34.441406 17.492188 34.546875 17.421875 L 34.46875 17.253906 C 34.378906 17.324219 34.285156 17.359375 34.195312 17.359375 C 34.078125 17.359375 33.988281 17.324219 33.921875 17.257812 C 33.855469 17.1875 33.824219 17.085938 33.824219 16.957031 C 33.824219 16.824219 33.855469 16.722656 33.921875 16.644531 C 33.984375 16.570312 34.074219 16.53125 34.183594 16.53125 C 34.234375 16.53125 34.285156 16.539062 34.339844 16.558594 C 34.390625 16.578125 34.429688 16.597656 34.449219 16.617188 L 34.546875 16.476562 C 34.515625 16.453125 34.464844 16.425781 34.394531 16.402344 M 35.671875 16.84375 C 35.671875 16.699219 35.628906 16.585938 35.539062 16.5 C 35.445312 16.410156 35.320312 16.363281 35.160156 16.363281 C 35.019531 16.363281 34.898438 16.414062 34.796875 16.515625 C 34.683594 16.625 34.625 16.773438 34.625 16.957031 C 34.625 17.136719 34.679688 17.277344 34.792969 17.382812 C 34.894531 17.480469 35.015625 17.527344 35.15625 17.527344 C 35.257812 17.527344 35.34375 17.511719 35.425781 17.484375 C 35.488281 17.460938 35.539062 17.433594 35.570312 17.402344 L 35.484375 17.261719 C 35.40625 17.328125 35.3125 17.359375 35.195312 17.359375 C 35.09375 17.359375 35.011719 17.328125 34.949219 17.265625 C 34.875 17.195312 34.839844 17.097656 34.839844 16.964844 L 35.65625 16.964844 C 35.667969 16.925781 35.671875 16.886719 35.671875 16.84375 M 35.394531 16.621094 C 35.445312 16.671875 35.472656 16.742188 35.472656 16.820312 L 34.84375 16.820312 C 34.851562 16.738281 34.886719 16.671875 34.941406 16.617188 C 35.003906 16.5625 35.078125 16.53125 35.167969 16.53125 C 35.265625 16.53125 35.339844 16.5625 35.394531 16.621094 M 37.152344 17.492188 C 37.191406 17.515625 37.253906 17.527344 37.335938 17.527344 L 37.335938 17.425781 C 37.277344 17.394531 37.246094 17.328125 37.246094 17.230469 L 37.246094 16.828125 C 37.246094 16.667969 37.207031 16.550781 37.132812 16.476562 C 37.058594 16.402344 36.941406 16.363281 36.773438 16.363281 C 36.714844 16.363281 36.648438 16.375 36.582031 16.398438 C 36.515625 16.421875 36.460938 16.445312 36.421875 16.476562 L 36.507812 16.644531 C 36.578125 16.574219 36.671875 16.542969 36.796875 16.542969 C 36.960938 16.542969 37.042969 16.632812 37.042969 16.8125 C 36.992188 16.796875 36.941406 16.789062 36.898438 16.789062 C 36.746094 16.789062 36.617188 16.828125 36.515625 16.90625 C 36.414062 16.984375 36.363281 17.078125 36.363281 17.191406 C 36.363281 17.289062 36.398438 17.367188 36.460938 17.429688 C 36.527344 17.496094 36.605469 17.527344 36.695312 17.527344 C 36.859375 17.527344 36.984375 17.476562 37.0625 17.375 C 37.082031 17.429688 37.109375 17.46875 37.152344 17.492188 M 37.042969 17.226562 C 36.964844 17.320312 36.875 17.371094 36.773438 17.371094 C 36.636719 17.371094 36.566406 17.3125 36.566406 17.195312 C 36.566406 17.125 36.597656 17.0625 36.660156 17.011719 C 36.726562 16.960938 36.808594 16.933594 36.910156 16.933594 C 36.9375 16.933594 36.980469 16.941406 37.042969 16.957031 Z M 38.429688 17.503906 L 38.429688 16.8125 C 38.429688 16.515625 38.308594 16.363281 38.058594 16.363281 C 37.90625 16.363281 37.800781 16.421875 37.730469 16.53125 L 37.667969 16.386719 L 37.53125 16.386719 L 37.53125 17.503906 L 37.730469 17.503906 L 37.730469 16.671875 C 37.757812 16.632812 37.796875 16.601562 37.847656 16.574219 C 37.898438 16.546875 37.945312 16.53125 37.992188 16.53125 C 38.078125 16.53125 38.140625 16.554688 38.175781 16.605469 C 38.210938 16.652344 38.230469 16.734375 38.230469 16.855469 L 38.230469 17.503906 Z M 39.613281 17.503906 L 39.613281 15.925781 L 39.414062 15.925781 L 39.414062 16.445312 C 39.351562 16.390625 39.261719 16.363281 39.144531 16.363281 C 39.003906 16.363281 38.882812 16.425781 38.785156 16.542969 C 38.679688 16.660156 38.628906 16.804688 38.628906 16.972656 C 38.628906 17.140625 38.675781 17.273438 38.761719 17.375 C 38.851562 17.476562 38.964844 17.527344 39.109375 17.527344 C 39.242188 17.527344 39.34375 17.492188 39.414062 17.421875 L 39.414062 17.503906 Z M 39.414062 17.265625 C 39.402344 17.289062 39.375 17.308594 39.328125 17.328125 C 39.285156 17.347656 39.25 17.359375 39.214844 17.359375 C 38.964844 17.359375 38.84375 17.222656 38.84375 16.953125 C 38.84375 16.832031 38.875 16.730469 38.941406 16.652344 C 39.007812 16.570312 39.097656 16.53125 39.203125 16.53125 C 39.292969 16.53125 39.363281 16.570312 39.414062 16.644531 Z M 41.539062 16.160156 L 41.539062 15.972656 L 40.316406 15.972656 L 40.316406 16.160156 L 40.808594 16.160156 L 40.808594 17.503906 L 41.023438 17.503906 L 41.023438 16.160156 Z M 42.476562 16.84375 C 42.476562 16.699219 42.433594 16.585938 42.34375 16.5 C 42.25 16.410156 42.125 16.363281 41.960938 16.363281 C 41.824219 16.363281 41.703125 16.414062 41.601562 16.515625 C 41.488281 16.625 41.429688 16.773438 41.429688 16.957031 C 41.429688 17.136719 41.484375 17.277344 41.597656 17.382812 C 41.695312 17.480469 41.816406 17.527344 41.960938 17.527344 C 42.058594 17.527344 42.148438 17.511719 42.230469 17.484375 C 42.296875 17.460938 42.34375 17.433594 42.375 17.402344 L 42.289062 17.261719 C 42.210938 17.328125 42.113281 17.359375 42 17.359375 C 41.898438 17.359375 41.816406 17.328125 41.75 17.265625 C 41.679688 17.195312 41.640625 17.097656 41.640625 16.964844 L 42.460938 16.964844 C 42.472656 16.925781 42.476562 16.886719 42.476562 16.84375 M 42.203125 16.621094 C 42.25 16.671875 42.277344 16.742188 42.277344 16.820312 L 41.648438 16.820312 C 41.65625 16.738281 41.6875 16.671875 41.746094 16.617188 C 41.808594 16.5625 41.882812 16.53125 41.972656 16.53125 C 42.070312 16.53125 42.144531 16.5625 42.203125 16.621094 M 43.394531 16.402344 C 43.324219 16.375 43.261719 16.363281 43.203125 16.363281 C 43.019531 16.363281 42.875 16.417969 42.769531 16.527344 C 42.664062 16.632812 42.609375 16.777344 42.609375 16.957031 C 42.609375 17.132812 42.660156 17.269531 42.761719 17.371094 C 42.863281 17.476562 42.988281 17.527344 43.144531 17.527344 C 43.304688 17.527344 43.4375 17.492188 43.546875 17.421875 L 43.46875 17.253906 C 43.375 17.324219 43.285156 17.359375 43.195312 17.359375 C 43.078125 17.359375 42.988281 17.324219 42.921875 17.257812 C 42.855469 17.1875 42.820312 17.085938 42.820312 16.957031 C 42.820312 16.824219 42.851562 16.722656 42.917969 16.644531 C 42.984375 16.570312 43.070312 16.53125 43.183594 16.53125 C 43.234375 16.53125 43.285156 16.539062 43.335938 16.558594 C 43.386719 16.578125 43.425781 16.597656 43.445312 16.617188 L 43.546875 16.476562 C 43.515625 16.453125 43.464844 16.425781 43.394531 16.402344 M 44.625 17.503906 L 44.625 16.800781 C 44.625 16.667969 44.589844 16.558594 44.519531 16.480469 C 44.453125 16.402344 44.359375 16.363281 44.238281 16.363281 C 44.171875 16.363281 44.113281 16.378906 44.054688 16.40625 C 43.992188 16.433594 43.949219 16.46875 43.921875 16.507812 L 43.921875 15.925781 L 43.722656 15.925781 L 43.722656 17.503906 L 43.921875 17.503906 L 43.921875 16.671875 C 43.949219 16.636719 43.988281 16.601562 44.035156 16.574219 C 44.085938 16.546875 44.132812 16.53125 44.183594 16.53125 C 44.257812 16.53125 44.316406 16.558594 44.359375 16.605469 C 44.398438 16.652344 44.421875 16.71875 44.421875 16.800781 L 44.421875 17.503906 Z M 45.78125 17.503906 L 45.78125 16.8125 C 45.78125 16.515625 45.65625 16.363281 45.410156 16.363281 C 45.257812 16.363281 45.148438 16.421875 45.082031 16.53125 L 45.019531 16.386719 L 44.878906 16.386719 L 44.878906 17.503906 L 45.082031 17.503906 L 45.082031 16.671875 C 45.109375 16.632812 45.148438 16.601562 45.199219 16.574219 C 45.25 16.546875 45.296875 16.53125 45.34375 16.53125 C 45.429688 16.53125 45.488281 16.554688 45.523438 16.605469 C 45.5625 16.652344 45.578125 16.734375 45.578125 16.855469 L 45.578125 17.503906 Z M 46.109375 17.371094 C 46.199219 17.472656 46.328125 17.527344 46.488281 17.527344 C 46.648438 17.527344 46.773438 17.476562 46.863281 17.371094 C 46.957031 17.265625 47 17.125 47 16.941406 C 47 16.761719 46.957031 16.621094 46.867188 16.519531 C 46.777344 16.414062 46.648438 16.363281 46.488281 16.363281 C 46.335938 16.363281 46.210938 16.417969 46.117188 16.523438 C 46.023438 16.632812 45.976562 16.769531 45.976562 16.941406 C 45.976562 17.121094 46.019531 17.261719 46.109375 17.371094 M 46.269531 16.636719 C 46.324219 16.5625 46.398438 16.527344 46.488281 16.527344 C 46.6875 16.527344 46.789062 16.664062 46.789062 16.941406 C 46.789062 17.074219 46.761719 17.175781 46.707031 17.25 C 46.65625 17.328125 46.582031 17.363281 46.488281 17.363281 C 46.285156 17.363281 46.1875 17.222656 46.1875 16.941406 C 46.1875 16.8125 46.214844 16.710938 46.269531 16.636719 M 47.601562 17.527344 L 47.601562 17.347656 C 47.542969 17.347656 47.496094 17.332031 47.460938 17.296875 C 47.425781 17.261719 47.410156 17.214844 47.410156 17.15625 L 47.410156 15.925781 L 47.207031 15.925781 L 47.207031 17.1875 C 47.207031 17.414062 47.335938 17.527344 47.601562 17.527344 M 47.835938 17.371094 C 47.925781 17.472656 48.050781 17.527344 48.214844 17.527344 C 48.371094 17.527344 48.496094 17.476562 48.589844 17.371094 C 48.679688 17.265625 48.726562 17.125 48.726562 16.941406 C 48.726562 16.761719 48.679688 16.621094 48.59375 16.519531 C 48.5 16.414062 48.375 16.363281 48.214844 16.363281 C 48.058594 16.363281 47.933594 16.417969 47.839844 16.523438 C 47.746094 16.632812 47.699219 16.769531 47.699219 16.941406 C 47.699219 17.121094 47.746094 17.261719 47.835938 17.371094 M 47.992188 16.636719 C 48.046875 16.5625 48.121094 16.527344 48.214844 16.527344 C 48.414062 16.527344 48.511719 16.664062 48.511719 16.941406 C 48.511719 17.074219 48.488281 17.175781 48.433594 17.25 C 48.382812 17.328125 48.308594 17.363281 48.214844 17.363281 C 48.011719 17.363281 47.910156 17.222656 47.910156 16.941406 C 47.910156 16.8125 47.9375 16.710938 47.992188 16.636719 M 49.082031 17.90625 C 49.164062 17.933594 49.238281 17.945312 49.3125 17.945312 C 49.457031 17.945312 49.574219 17.914062 49.667969 17.851562 C 49.761719 17.785156 49.808594 17.703125 49.808594 17.597656 C 49.808594 17.507812 49.777344 17.433594 49.714844 17.378906 C 49.652344 17.328125 49.566406 17.300781 49.453125 17.300781 C 49.421875 17.300781 49.375 17.304688 49.3125 17.316406 C 49.246094 17.328125 49.199219 17.332031 49.167969 17.332031 C 49.097656 17.332031 49.066406 17.320312 49.066406 17.289062 C 49.066406 17.269531 49.082031 17.253906 49.117188 17.238281 C 49.148438 17.226562 49.175781 17.21875 49.195312 17.21875 L 49.359375 17.199219 C 49.476562 17.191406 49.570312 17.144531 49.640625 17.070312 C 49.714844 16.992188 49.75 16.898438 49.75 16.785156 C 49.75 16.679688 49.722656 16.589844 49.671875 16.527344 L 49.792969 16.4375 L 49.660156 16.3125 L 49.558594 16.433594 C 49.496094 16.386719 49.410156 16.363281 49.296875 16.363281 C 49.175781 16.363281 49.074219 16.402344 48.992188 16.480469 C 48.910156 16.558594 48.867188 16.65625 48.867188 16.773438 C 48.867188 16.957031 48.945312 17.085938 49.109375 17.160156 C 49.050781 17.171875 49.003906 17.191406 48.964844 17.222656 C 48.929688 17.253906 48.910156 17.285156 48.910156 17.324219 C 48.910156 17.445312 48.992188 17.503906 49.152344 17.503906 C 49.183594 17.503906 49.230469 17.5 49.289062 17.488281 C 49.351562 17.476562 49.390625 17.46875 49.414062 17.46875 C 49.546875 17.46875 49.613281 17.515625 49.613281 17.605469 C 49.613281 17.652344 49.585938 17.691406 49.535156 17.722656 C 49.480469 17.753906 49.410156 17.769531 49.320312 17.769531 C 49.21875 17.769531 49.113281 17.730469 48.996094 17.652344 L 48.886719 17.8125 C 48.933594 17.847656 49 17.878906 49.082031 17.90625 M 49.476562 16.597656 C 49.519531 16.644531 49.539062 16.707031 49.539062 16.773438 C 49.539062 16.855469 49.519531 16.921875 49.480469 16.972656 C 49.441406 17.019531 49.382812 17.046875 49.3125 17.046875 C 49.238281 17.046875 49.179688 17.019531 49.136719 16.96875 C 49.09375 16.917969 49.074219 16.851562 49.074219 16.773438 C 49.074219 16.707031 49.097656 16.644531 49.140625 16.597656 C 49.183594 16.546875 49.242188 16.523438 49.3125 16.523438 C 49.378906 16.523438 49.429688 16.546875 49.476562 16.597656 M 50.945312 16.386719 L 50.738281 16.386719 L 50.441406 17.25 L 50.105469 16.386719 L 49.898438 16.386719 L 50.207031 17.164062 C 50.242188 17.253906 50.269531 17.328125 50.292969 17.386719 C 50.3125 17.445312 50.324219 17.507812 50.324219 17.566406 C 50.324219 17.625 50.292969 17.671875 50.234375 17.710938 C 50.175781 17.746094 50.101562 17.765625 50.019531 17.765625 L 50.019531 17.945312 C 50.121094 17.945312 50.214844 17.921875 50.296875 17.875 C 50.382812 17.828125 50.4375 17.765625 50.460938 17.695312 Z M 50.945312 16.386719 "/>
</g>
</svg>
